PathFileType	4	(X/Y/Z)	/Users/itak/Documents/Research/Walk-IL/dataset/trc/00140_00007.trc
DataRate	CameraRate	NumFrames	NumMarkers	Units	OrigDataRate	OrigDataStartFrame	OrigNumFrames
100.000000	100.000000	4	53	mm	100.000000	402	536
Frame#	Time	RPSI			LPSI			L3			STRN			T10			C7			CLAV			RBAK			LBAK			LSHO			LUPA			LAEL			LAOL			LWTS			LWPS			LFRA			LIFD			LHPS			LHTS			RSHO			RUPA			RAEL			RAOL			RWTS			RWPS			RFRA			RIFD			RHTS			RHPS			RBHD			LFHD			RFHD			LBHD			LHIP			RHIP			RASI			LASI			LKNE			LTHI			LANK			LTIP			LTOE			LMT1			LMT5			LHEE			RKNE			RTHI			RANK			RTIP			RTOE			RMT1			RMT5			RHEE			
		X1	Y1	Z1	X2	Y2	Z2	X3	Y3	Z3	X4	Y4	Z4	X5	Y5	Z5	X6	Y6	Z6	X7	Y7	Z7	X8	Y8	Z8	X9	Y9	Z9	X10	Y10	Z10	X11	Y11	Z11	X12	Y12	Z12	X13	Y13	Z13	X14	Y14	Z14	X15	Y15	Z15	X16	Y16	Z16	X17	Y17	Z17	X18	Y18	Z18	X19	Y19	Z19	X20	Y20	Z20	X21	Y21	Z21	X22	Y22	Z22	X23	Y23	Z23	X24	Y24	Z24	X25	Y25	Z25	X26	Y26	Z26	X27	Y27	Z27	X28	Y28	Z28	X29	Y29	Z29	X30	Y30	Z30	X31	Y31	Z31	X32	Y32	Z32	X33	Y33	Z33	X34	Y34	Z34	X35	Y35	Z35	X36	Y36	Z36	X37	Y37	Z37	X38	Y38	Z38	X39	Y39	Z39	X40	Y40	Z40	X41	Y41	Z41	X42	Y42	Z42	X43	Y43	Z43	X44	Y44	Z44	X45	Y45	Z45	X46	Y46	Z46	X47	Y47	Z47	X48	Y48	Z48	X49	Y49	Z49	X50	Y50	Z50	X51	Y51	Z51	X52	Y52	Z52	X53	Y53	Z53	

403	4.02	861.77587890625	1098.910400390625	326.5137939453125	726.8370361328125	1100.49853515625	301.5783386230469	790.6046752929688	1133.905517578125	321.4451293945312	832.088134765625	1344.213012695312	116.0914611816406	784.4443969726562	1281.134033203125	364.328125	781.2196655273438	1575.847778320312	346.0015563964844	823.1588745117188	1476.286743164062	160.1423645019531	855.1688842773438	1387.069580078125	402.9050903320312	678.5311279296875	1555.962036132812	330.2817993164062	629.3294677734375	1546.319702148438	231.125732421875	556.8726806640625	1414.53271484375	224.4907836914062	541.8294677734375	1198.80517578125	176.9333343505859	585.0824584960938	1177.4931640625	252.7108917236328	608.17431640625	951.0609130859375	63.62674331665039	566.3284912109375	917.4722900390625	134.2575378417969	542.298095703125	1085.486938476562	147.3390808105469	626.2024536132812	760.6285400390625	27.37797355651855	572.619384765625	846.1627807617188	96.95275115966797	600.3812255859375	866.0677490234375	37.03175735473633	969.3057250976562	1558.475708007812	321.8374633789062	1027.917114257812	1484.505493164062	347.9452209472656	1051.15576171875	1190.31689453125	350.3810729980469	955.0902709960938	1187.6005859375	331.9949645996094	1078.122680664062	955.7227172851562	194.5593872070312	1091.007202148438	935.1761474609375	274.0306701660156	1073.417358398438	1118.666625976562	327.0299987792969	1079.589233398438	763.1371459960938	154.7882537841797	1094.878295898438	851.0159912109375	162.4954833984375	1106.324096679688	838.4862060546875	233.7051544189453	869.3683471679688	1747.0703125	328.9190368652344	730.4744873046875	1824.181762695312	176.0085296630859	859.919189453125	1841.2763671875	177.5770568847656	736.372802734375	1733.624755859375	335.6793518066406	631.0923461914062	1016.753540039062	191.4656219482422	1003.375305175781	1017.26416015625	206.8626403808594	958.091064453125	1086.46728515625	127.3046264648438	692.8966674804688	1083.635986328125	94.27599334716797	698.7981567382812	503.02685546875	178.6342926025391	661.2267456054688	653.5972290039062	186.3378753662109	616.9839477539062	76.92972564697266	475.6862487792969	622.8604125976562	299.1513977050781	348.8904418945312	778.7125244140625	31.10722160339355	316.9003601074219	765.4884643554688	46.71394729614258	397.5595092773438	656.6774291992188	38.77657699584961	362.8951721191406	637.470947265625	107.2021179199219	562.1254272460938	990.5023803710938	547.1602172851562	62.44809722900391	1011.313171386719	815.1365966796875	135.04052734375	993.7247314453125	22.12877464294434	24.31463813781738	1009.548156738281	413.1061096191406	48.81198120117188	943.4141845703125	83.74217224121094	-192.4738922119141	900.4066162109375	59.03548812866211	-142.3981781005859	1015.016906738281	45.1605224609375	-105.2490615844727	940.8983764648438	23.14887619018555	80.20436859130859	
404	4.03	866.6781616210938	1100.219360351562	319.4023132324219	731.7122802734375	1101.599243164062	296.3950805664062	795.5278930664062	1135.123779296875	315.2836303710938	835.01416015625	1345.588256835938	109.4358291625977	789.4768676757812	1282.253173828125	358.3650207519531	786.1602783203125	1577.0283203125	340.1873779296875	826.403564453125	1477.473876953125	153.9043731689453	860.4629516601562	1388.087768554688	396.0844421386719	683.3529663085938	1557.244506835938	325.1500854492188	633.3580322265625	1547.933715820312	226.3589477539062	560.7282104492188	1416.229370117188	220.4937286376953	545.1143188476562	1200.309448242188	174.1995544433594	589.3605346679688	1179.5068359375	249.7173156738281	609.2440795898438	950.9720458984375	62.70869445800781	568.0829467773438	918.5375366210938	134.2333526611328	544.8545532226562	1086.8017578125	145.6366577148438	626.2279663085938	759.789306640625	29.06428146362305	573.4881591796875	846.6949462890625	97.86835479736328	600.8970336914062	865.5263671875	37.39851379394531	973.9754028320312	1559.4892578125	314.4244384765625	1032.798095703125	1485.554565429688	340.02001953125	1056.043579101562	1191.387451171875	342.2518310546875	959.855712890625	1188.653686523438	324.4749145507812	1082.04345703125	957.1441650390625	185.6844177246094	1095.436889648438	936.380859375	265.0182189941406	1078.175659179688	1119.767944335938	318.6164855957031	1083.263671875	764.6738891601562	145.3932952880859	1098.560791015625	852.523681640625	153.2237548828125	1110.50537109375	839.8062744140625	224.3348846435547	874.1075439453125	1748.125610351562	322.6008911132812	734.46337890625	1825.554321289062	170.5391845703125	863.9273681640625	1842.43408203125	171.4054412841797	741.113525390625	1734.86767578125	330.1156005859375	635.1356201171875	1017.82080078125	186.9517517089844	1007.831237792969	1019.66162109375	198.16845703125	961.1506958007812	1087.986328125	119.4768676757812	695.6781005859375	1084.671142578125	89.07605743408203	700.7396850585938	503.0937194824219	167.6131134033203	664.2052612304688	654.0494995117188	177.8284301757812	619.616455078125	82.59776306152344	474.7765197753906	626.3790893554688	303.2766723632812	343.5341491699219	778.1126098632812	31.25532341003418	316.6701354980469	766.2837524414062	48.27418518066406	395.96484375	657.14697265625	39.09096908569336	363.40966796875	641.8693237304688	116.1931533813477	559.5184326171875	992.8844604492188	547.3617553710938	57.70096969604492	1014.30517578125	816.2062377929688	127.9720611572266	994.11474609375	22.06240463256836	24.02041053771973	1011.52880859375	413.1218872070312	44.88923263549805	942.4816284179688	81.69583892822266	-193.5585479736328	899.81396484375	57.79280471801758	-142.7288665771484	1014.620910644531	44.33416366577148	-106.0730972290039	941.4107666015625	23.49437141418457	79.97929382324219	
405	4.04	871.6563720703125	1101.480224609375	312.2300720214844	736.7001342773438	1102.595092773438	291.4358520507812	800.5457153320312	1136.270385742188	309.2032775878906	837.8963012695312	1346.90576171875	102.7996826171875	794.5841674804688	1283.32275390625	352.5322265625	791.0736083984375	1578.168579101562	334.4292297363281	829.578857421875	1478.596801757812	147.7051696777344	865.7877197265625	1389.049560546875	389.3204650878906	688.146484375	1558.446166992188	320.0924987792969	637.3310546875	1549.435668945312	221.7102813720703	564.513671875	1417.826782226562	216.6758422851562	548.2344970703125	1201.7177734375	171.6960754394531	593.4414672851562	1181.354370117188	246.9081115722656	610.2501831054688	951.0012817382812	61.72989654541016	569.846435546875	919.5894775390625	134.0919036865234	547.2936401367188	1088.060424804688	144.0446624755859	626.46875	759.159423828125	30.47563171386719	574.5131225585938	847.255615234375	98.60498809814453	601.4813842773438	865.1316528320312	37.61196517944336	978.6041870117188	1560.452026367188	306.9915161132812	1037.6416015625	1486.53271484375	332.072509765625	1060.936645507812	1192.404418945312	334.1536254882812	964.6263427734375	1189.644165039062	317.0410766601562	1085.912353515625	958.5491943359375	176.7960205078125	1099.850708007812	937.5453491210938	255.9713897705078	1082.935302734375	1120.814086914062	310.22119140625	1086.926025390625	766.2211303710938	135.9208526611328	1102.194580078125	854.0377807617188	143.8937835693359	1114.672241210938	841.1093139648438	214.8927001953125	878.800048828125	1749.096435546875	316.3249206542969	738.4345092773438	1826.865600585938	165.1026916503906	867.9158935546875	1843.50341796875	165.2762451171875	745.8103637695312	1736.055419921875	324.5845336914062	639.2239379882812	1018.830993652344	182.49658203125	1012.141235351562	1021.843139648438	189.580078125	964.1295166015625	1089.410278320312	111.6230773925781	698.42529296875	1085.667724609375	84.03147888183594	702.2840576171875	503.2107543945312	156.2171630859375	666.8981323242188	654.5242919921875	169.2041778564453	622.7577514648438	88.664794921875	473.6832580566406	629.9923706054688	307.6912231445312	337.8197937011719	777.5429077148438	31.35491180419922	316.3598937988281	767.2208862304688	49.92707824707031	394.0876159667969	657.7234497070312	39.62469863891602	363.940673828125	646.8043823242188	125.6513442993164	556.423828125	995.2734375	547.4465942382812	53.23814392089844	1017.286804199219	817.2144165039062	120.9461975097656	994.4198608398438	22.0191478729248	23.7447566986084	1013.494018554688	413.0529479980469	41.22643280029297	941.6062622070312	79.88528442382812	-194.6200561523438	899.2724609375	56.76850891113281	-143.0371704101562	1014.244506835938	43.70416641235352	-106.8455810546875	941.8573608398438	23.79255485534668	79.75984191894531	
406	4.05	876.6828002929688	1102.686157226562	305.0967102050781	741.7308959960938	1103.433959960938	286.6054382324219	805.613525390625	1137.313598632812	303.211669921875	840.7203369140625	1348.147705078125	96.17538452148438	799.7525634765625	1284.322875976562	346.7855529785156	795.9544067382812	1579.24169921875	328.7228393554688	832.6828002929688	1479.634399414062	141.5476531982422	871.13525390625	1389.938354492188	382.622314453125	692.9017944335938	1559.541137695312	315.1144104003906	641.2406005859375	1550.7822265625	217.185302734375	568.231201171875	1419.270263671875	213.0417633056641	551.204833984375	1202.986206054688	169.4095764160156	597.3253784179688	1182.984252929688	244.2669982910156	611.2084350585938	951.1055297851562	60.66782760620117	571.6106567382812	920.5709228515625	133.81201171875	549.630859375	1089.215209960938	142.5491333007812	626.8921508789062	758.6976928710938	31.52982902526855	575.6581420898438	847.8059692382812	99.10368347167969	602.1219482421875	864.8463745117188	37.6268196105957	983.188232421875	1561.347900390625	299.5411682128906	1042.446411132812	1487.430053710938	324.0966186523438	1065.838012695312	1193.348388671875	326.068359375	969.4072265625	1190.552368164062	309.6860046386719	1089.728149414062	959.9105224609375	167.8929595947266	1104.251831054688	938.6513061523438	246.8888244628906	1087.69775390625	1121.787353515625	301.8268432617188	1090.578002929688	767.7481689453125	126.3906860351562	1105.78369140625	855.5287475585938	134.5154571533203	1118.825561523438	842.3707885742188	205.385009765625	883.4398803710938	1749.954711914062	310.0930480957031	742.3748779296875	1828.090454101562	159.7073059082031	871.8726806640625	1844.470581054688	159.1974945068359	750.460205078125	1737.14794921875	319.0895080566406	643.3416748046875	1019.700256347656	178.1460876464844	1016.195068359375	1023.658813476562	181.2194061279297	967.0057983398438	1090.733520507812	103.7562942504883	701.1204833984375	1086.60107421875	79.14990997314453	703.4768676757812	503.4054870605469	144.5289764404297	669.34228515625	655.0226440429688	160.50048828125	626.4588623046875	95.09706115722656	472.37255859375	633.6259765625	312.378662109375	331.7254333496094	777.0663452148438	31.35975646972656	315.9477844238281	768.3072509765625	51.68241119384766	391.8907470703125	658.412353515625	40.48176956176758	364.426513671875	652.2759399414062	135.4796447753906	552.8084716796875	997.6861572265625	547.4290161132812	49.05133438110352	1020.26953125	818.14794921875	113.9938430786133	994.6412963867188	21.98934173583984	23.49095344543457	1015.463928222656	412.8976745605469	37.83778762817383	940.8987426757812	78.29808807373047	-195.6563873291016	898.8742065429688	55.9674186706543	-143.3492431640625	1013.954467773438	43.19615936279297	-107.5477600097656	942.2288818359375	24.04088401794434	79.54609680175781	
